<svg width="52" height="52" viewBox="0 0 52 52" xmlns="http://www.w3.org/2000/svg">
<path d="M46.188 11.6331C44.0872 13.7339 42.5576 16.2871 41.7637 19.0162C38.6688 29.6606 31.0188 37.0689 18.3767 41.6648C16.0948 42.4933 13.8692 43.9519 11.94 45.8811L11.6332 46.1879C11.2943 46.5268 11.2943 47.0745 11.6323 47.4143C11.8013 47.5833 12.0232 47.6682 12.245 47.6682C12.4669 47.6682 12.6879 47.5833 12.8578 47.4151L13.1646 47.1083C14.9161 45.3568 16.9233 44.0369 18.9686 43.2941C32.1671 38.4963 40.1673 30.7127 43.4286 19.5007C44.141 17.0506 45.519 14.7539 47.4144 12.8585C47.7532 12.5197 47.7532 11.9719 47.4144 11.6331C47.0755 11.2942 46.5269 11.2942 46.188 11.6331Z" fill="#92BE37"/>
<path d="M18.9768 40.1928C19.1025 40.1928 19.2299 40.1659 19.3503 40.1079C28.6679 35.6515 35.6515 28.6687 40.1079 19.3503C40.3141 18.9179 40.1313 18.4005 39.6997 18.1942C39.2672 17.9879 38.7498 18.1708 38.5435 18.6024C34.2631 27.5551 27.5533 34.2639 18.6024 38.5444C18.1708 38.7507 17.9879 39.2689 18.1942 39.7005C18.3433 40.0108 18.6535 40.1928 18.9768 40.1928Z" fill="#92BE37"/>
<path d="M18.6566 34.3537C18.2467 34.6016 18.1158 35.1337 18.3637 35.5436C18.5266 35.8132 18.8126 35.9614 19.1056 35.9614C19.2581 35.9614 19.4132 35.9206 19.5536 35.8357C26.2842 31.7632 31.7624 26.285 35.8357 19.5536C36.0836 19.1446 35.9527 18.6116 35.5428 18.3637C35.1337 18.1158 34.6016 18.2467 34.3528 18.6566C30.426 25.1462 25.1445 30.4268 18.6566 34.3537Z" fill="#92BE37"/>
<path d="M32.9866 10.236C35.7158 9.44212 38.269 7.91245 40.3698 5.81165C40.7086 5.47278 40.7086 4.92505 40.3698 4.58618C40.0309 4.24731 39.4832 4.24731 39.1443 4.58618C37.2489 6.48158 34.9531 7.85958 32.503 8.57198C21.291 11.8324 13.5083 19.8334 8.70957 33.0319C7.96597 35.0764 6.6469 37.0836 4.89364 38.836L4.58684 39.1437C4.24884 39.4834 4.2497 40.0311 4.58944 40.37C4.75844 40.5381 4.97944 40.6222 5.2013 40.6222C5.42404 40.6222 5.6459 40.5364 5.8149 40.3674L6.12084 40.0606C8.0509 38.1314 9.5095 35.9058 10.3389 33.6239C14.934 20.98 22.3422 13.33 32.9866 10.236Z" fill="#92BE37"/>
<path d="M33.3969 13.4575C33.8285 13.2513 34.0114 12.7339 33.8051 12.3014C33.598 11.8689 33.0797 11.6878 32.649 11.8932C23.3315 16.3496 16.3479 23.3332 11.8915 32.6507C11.6852 33.0823 11.8681 33.6006 12.2997 33.8069C12.421 33.8641 12.5475 33.8918 12.6732 33.8918C12.9965 33.8918 13.3067 33.7098 13.4558 33.3995C17.7363 24.4477 24.446 17.738 33.3969 13.4575Z" fill="#92BE37"/>
<path d="M16.4572 33.636C16.5976 33.7209 16.7519 33.7617 16.9053 33.7617C17.1982 33.7617 17.4842 33.6126 17.6471 33.3439C21.574 26.8561 26.8555 21.5746 33.3433 17.6477C33.7533 17.3999 33.8841 16.8669 33.6363 16.4578C33.3884 16.0479 32.8545 15.9161 32.4463 16.1649C25.7158 20.2382 20.2376 25.7164 16.1643 32.4469C15.9164 32.8551 16.0481 33.3873 16.4572 33.636Z" fill="#92BE37"/>
</svg>
