<svg width="53" height="53" viewBox="0 0 53 53" fill="none" xmlns="http://www.w3.org/2000/svg">
<path d="M26.1893 30.9158H12.1452C11.2428 30.9158 10.7214 29.892 11.2522 29.1621L28.9188 4.8704C29.6327 3.88884 31.1775 4.61017 30.8831 5.78763L26.8094 22.0824H40.8535C41.7561 22.0824 42.2772 23.1062 41.7466 23.8359L24.0799 48.1275C23.3659 49.1091 21.8213 48.3879 22.1156 47.2104L26.1893 30.9158ZM27.3624 10.7651L14.3135 28.7074H27.6035C28.3219 28.7074 28.849 29.3825 28.6748 30.0793L25.6363 42.2328L38.6851 24.2908H25.3952C24.6768 24.2908 24.1499 23.6157 24.3239 22.9187L27.3624 10.7651Z" fill="#92BE37"/>
</svg>
