<svg width="47" height="47" viewBox="0 0 47 47" fill="none" xmlns="http://www.w3.org/2000/svg">
<g clip-path="url(#clip0_2323_18449)">
<path d="M28.1745 31.9811C28.449 32.3523 28.3739 32.8768 28.0029 33.1546C25.53 35.0065 23.1405 35.6652 20.9862 35.6652C15.8033 35.6652 12.0313 31.8555 11.9805 31.7967C11.6603 31.4633 11.6651 30.9335 12.0001 30.6133C12.3303 30.2914 12.8631 30.3027 13.1801 30.6299C13.4448 30.901 19.7569 37.2429 26.9991 31.8131C27.3687 31.535 27.8966 31.6134 28.1745 31.9811ZM38.4667 22.6845C36.347 22.4515 34.6127 22.9115 33.3117 24.0614C31.097 26.0204 31.0318 29.2435 31.0318 29.3807C31.0253 29.8383 31.3947 30.2173 31.8553 30.2241C31.8588 30.2241 31.8652 30.2241 31.8684 30.2241C32.3212 30.2241 32.6954 29.8579 32.7054 29.4035C32.7054 29.3742 32.7706 26.7719 34.4262 25.3109C35.3627 24.4928 36.6704 24.1683 38.282 24.3505C38.759 24.3897 39.1562 24.0695 39.207 23.6124C39.2593 23.151 38.9294 22.7344 38.4667 22.6845ZM8.26401 31.5186C6.89267 31.1654 5.49689 30.6422 4.92328 30.2796C5.02313 29.9135 5.21264 29.4199 5.51998 29.1388C5.86328 28.8299 5.89442 28.3019 5.58198 27.9589C5.2682 27.6158 4.74183 27.5812 4.39853 27.8969C3.40162 28.7961 3.19897 30.311 3.17776 30.4825C3.15146 30.6916 3.21051 30.9042 3.33452 31.0744C4.06676 32.0845 6.73081 32.8527 7.84555 33.1401C7.91749 33.1597 7.98593 33.1662 8.05465 33.1662C8.43043 33.1662 8.76891 32.9179 8.86527 32.5386C8.98472 32.0871 8.71335 31.6314 8.26401 31.5186ZM46.9903 28.3183C46.5751 37.1313 40.6962 40.8902 27.3445 40.8902C27.341 40.8902 27.341 40.8902 27.341 40.8902C24.9712 40.8902 22.32 40.7627 19.4581 40.5144C8.28522 39.5502 0.577058 32.2085 0.254956 31.8976C0.0702849 31.7178 -0.0228562 31.4596 0.00479087 31.2046C1.13268 20.7395 13.0445 7.48233 13.551 6.9208C14.2785 6.34236 15.2869 6.10938 16.7514 6.10938C18.618 6.10938 20.5957 6.48784 20.6805 6.50234C20.8244 6.53079 20.9583 6.59655 21.0694 6.69211C23.7547 9.02359 23.4296 11.9094 23.4133 12.0309C23.3888 12.2255 23.2989 12.4046 23.155 12.5385L20.7752 14.7605C20.6201 14.9068 20.4158 14.9868 20.2016 14.9868H16.0798C13.682 19.1408 12.8371 22.1398 12.5984 24.1315C14.5713 22.4496 17.2225 21.4868 20.0417 21.4868C23.595 21.4868 26.813 22.9921 28.7776 25.4543C29.9855 21.6698 33.5356 18.9486 37.6641 18.9486C40.253 18.9486 42.7635 20.0207 44.5482 21.8924C46.2352 23.6618 47.1049 25.9417 46.9903 28.3183ZM45.3199 28.2399C45.4115 26.3258 44.7053 24.4829 43.3371 23.0487C41.8665 21.5074 39.7972 20.6241 37.6609 20.6241C33.6451 20.6241 30.2947 23.7654 30.0279 27.7739C30.0018 28.1583 29.7205 28.4734 29.3448 28.5421C28.9574 28.5993 28.5897 28.4144 28.4311 28.0649C27.0957 25.1327 23.7273 23.1593 20.0368 23.1593C16.9183 23.1593 14.0645 24.5118 12.4025 26.7754C12.1998 27.0567 11.8434 27.1775 11.51 27.0911C11.1782 26.9977 10.9313 26.7137 10.8969 26.3701C10.6535 24.0918 11.1436 20.0481 14.8752 13.7239C15.0255 13.4689 15.3001 13.3118 15.5975 13.3118H19.8715L21.7609 11.5475C21.7512 10.942 21.5714 9.4442 20.1361 8.10292C19.587 8.00816 18.1048 7.78001 16.7498 7.78001C15.2657 7.78001 14.7917 8.05621 14.6838 8.1421C14.6706 8.17646 3.07281 21.0876 1.71945 30.9633C3.22634 32.2936 10.2219 38.0385 19.6033 38.8475C22.4196 39.0912 25.0232 39.2155 27.344 39.2155C42.6851 39.2169 45.0518 33.9408 45.3199 28.2399Z" fill="#92BE37"/>
</g>
<defs>
<clipPath id="clip0_2323_18449">
<rect width="47" height="47" fill="white"/>
</clipPath>
</defs>
</svg>
